<svg xmlns="http://www.w3.org/2000/svg" viewBox="-294.27 -137.46 1993.16 1993.16">
<g transform="translate(0.497710,2202.888306) scale(0.100000,-0.100000)" fill="#1F7A47">
<path d="M4209 22020 c-92 -7 -161 -23 -185 -41 -6 -5 -39 -15 -75 -23 -61 -15 -156 -52 -284 -111 -195 -91 -501 -340 -634 -514 -31 -41 -72 -95 -91 -120 -19 -25 -46 -68 -60 -96 -82 -157 -135 -253 -151 -276 -10 -14 -21 -38 -25 -55 -3 -16 -19 -51 -34 -79 -62 -110 -150 -291 -150 -307 0 -9 -4 -19 -8 -22 -14 -9 -262 -515 -287 -587 -8 -21 -25 -55 -39 -76 -15 -21 -26 -42 -26 -46 0 -5 -9 -22 -20 -37 -11 -16 -36 -59 -54 -97 -69 -139 -153 -319 -161 -343 -4 -14 -16 -37 -27 -52 -10 -15 -25 -46 -33 -69 -9 -23 -19 -47 -24 -53 -5 -6 -28 -49 -51 -96 -24 -47 -61 -121 -83 -165 -22 -44 -45 -87 -52 -95 -19 -23 -95 -185 -95 -202 0 -9 -8 -26 -18 -39 -17 -22 -63 -113 -107 -209 -8 -19 -22 -46 -29 -60 -8 -14 -31 -61 -51 -105 -20 -44 -69 -143 -108 -220 -134 -267 -162 -322 -173 -346 -6 -13 -30 -60 -53 -104 -22 -44 -46 -96 -52 -115 -7 -19 -20 -47 -31 -62 -10 -15 -24 -42 -30 -60 -6 -18 -22 -49 -35 -68 -12 -19 -23 -39 -23 -44 0 -9 -72 -153 -125 -251 -54 -99 -113 -218 -121 -245 -4 -14 -17 -41 -30 -60 -13 -19 -24 -39 -24 -44 0 -10 -64 -149 -81 -176 -5 -8 -19 -35 -30 -60 -91 -197 -201 -418 -229 -460 -18 -26 -90 -182 -90 -195 0 -4 -8 -19 -19 -33 -10 -15 -25 -47 -32 -71 -8 -26 -24 -52 -41 -64 -42 -31 -45 -3917 -3 -3917 13 0 55 12 92 26 37 14 95 36 128 48 33 12 69 27 80 33 33 17 196 70 253 82 29 6 74 22 100 35 27 13 66 28 88 32 21 4 59 16 84 26 24 11 77 25 116 33 40 7 119 30 176 49 58 20 114 36 126 36 11 0 63 11 114 25 51 14 111 25 134 25 53 0 124 22 163 50 28 19 121 189 121 220 0 5 11 31 25 57 14 27 32 64 40 83 7 19 20 46 28 60 9 14 31 59 50 100 48 102 115 240 132 270 17 32 137 284 177 370 16 36 36 76 44 90 7 14 21 41 29 60 14 32 117 244 153 315 8 17 21 44 29 60 8 17 19 39 25 50 21 37 37 70 58 115 11 25 27 56 35 70 20 35 38 71 100 205 55 119 83 182 90 205 4 14 18 41 31 60 13 19 24 40 24 46 0 6 13 35 29 65 15 30 34 71 40 91 7 20 18 42 26 48 8 6 19 28 26 48 6 19 25 56 40 81 16 25 29 51 29 60 0 8 11 28 24 45 13 17 27 42 31 56 4 14 21 49 36 79 16 30 29 59 29 65 0 6 11 27 24 46 12 19 29 53 36 75 13 41 51 122 76 165 8 14 68 133 134 265 67 132 125 247 130 255 10 18 142 292 175 365 21 46 70 149 176 370 24 50 54 105 66 124 13 19 23 41 23 50 0 9 11 32 23 51 13 19 28 49 34 65 6 17 22 48 37 69 14 21 26 45 26 52 0 7 14 35 30 61 16 26 30 53 30 61 0 8 27 69 59 136 144 295 171 352 171 364 0 26 47 45 77 30 27 -13 123 -183 123 -218 0 -8 11 -31 24 -51 13 -19 29 -54 35 -77 7 -23 16 -44 22 -48 6 -4 22 -32 36 -63 14 -31 30 -63 37 -71 7 -8 20 -36 30 -62 9 -25 24 -52 31 -58 8 -7 20 -31 26 -54 6 -22 19 -52 29 -66 9 -14 23 -43 30 -65 7 -22 21 -52 31 -67 11 -14 19 -30 19 -35 0 -7 21 -54 84 -183 7 -14 18 -34 24 -45 6 -11 18 -36 27 -55 8 -19 21 -46 29 -60 19 -37 57 -111 73 -145 8 -16 20 -41 28 -55 7 -14 34 -68 60 -120 26 -52 54 -108 63 -125 20 -39 48 -97 80 -165 33 -73 46 -101 59 -125 6 -11 26 -54 46 -95 19 -41 48 -104 66 -140 17 -36 31 -70 31 -76 0 -6 10 -23 21 -38 12 -15 27 -47 35 -72 7 -25 25 -59 39 -76 14 -16 25 -37 25 -46 0 -9 14 -37 30 -62 16 -25 30 -52 30 -61 0 -9 13 -36 30 -60 16 -24 30 -50 30 -57 0 -7 14 -38 30 -69 17 -31 30 -61 30 -68 0 -7 9 -24 20 -38 11 -14 27 -44 35 -67 8 -23 23 -53 34 -68 10 -15 24 -46 30 -68 6 -23 18 -47 26 -54 7 -6 21 -33 30 -60 9 -27 22 -54 30 -60 8 -6 19 -28 26 -48 7 -20 22 -50 35 -65 13 -15 28 -43 33 -62 5 -19 18 -47 29 -63 12 -15 24 -41 28 -58 3 -16 17 -42 29 -59 12 -16 25 -41 29 -55 4 -14 17 -47 30 -75 13 -27 31 -66 40 -85 8 -19 22 -46 30 -60 8 -14 21 -38 29 -55 8 -16 21 -43 30 -60 8 -16 29 -59 46 -95 37 -81 116 -243 141 -290 35 -66 77 -155 85 -180 4 -14 16 -38 27 -53 11 -15 24 -44 30 -65 6 -20 18 -48 28 -62 10 -14 23 -44 29 -66 6 -22 20 -49 31 -59 11 -10 20 -23 20 -29 0 -6 15 -42 34 -81 19 -38 48 -101 66 -140 17 -38 38 -81 45 -95 47 -89 115 -227 115 -234 0 -4 8 -20 18 -34 11 -15 24 -43 31 -62 6 -19 19 -46 28 -60 22 -31 59 -116 86 -194 11 -33 30 -74 42 -93 37 -53 51 -129 30 -153 -18 -20 -39 -20 -1042 -20 -1024 0 -1024 0 -1049 -25 -28 -28 -39 -2488 -11 -2545 13 -25 13 -25 1547 -27 1924 -2 1834 5 1906 -152 14 -31 31 -67 39 -81 7 -14 39 -74 70 -135 31 -60 66 -128 77 -150 11 -22 31 -62 43 -90 35 -78 89 -193 124 -266 17 -36 31 -73 31 -81 0 -8 11 -29 24 -47 14 -19 28 -47 31 -63 4 -16 19 -53 34 -81 15 -29 30 -61 34 -72 4 -11 25 -51 46 -90 57 -103 121 -229 121 -240 0 -6 16 -41 35 -79 19 -39 35 -75 35 -81 0 -6 11 -26 25 -45 14 -19 30 -53 36 -75 6 -22 19 -51 28 -65 10 -14 25 -46 35 -72 9 -25 23 -52 31 -58 7 -6 17 -25 20 -41 4 -17 26 -66 48 -110 23 -44 50 -96 60 -117 10 -20 24 -48 32 -62 15 -28 80 -158 131 -266 19 -39 34 -75 34 -80 0 -5 14 -29 30 -53 17 -24 30 -52 30 -61 0 -10 11 -33 25 -53 13 -20 29 -54 35 -75 5 -21 19 -47 29 -56 11 -10 23 -32 27 -50 3 -17 17 -51 30 -76 13 -25 24 -52 24 -62 0 -9 11 -30 25 -46 14 -17 31 -45 37 -64 6 -18 20 -45 30 -60 10 -15 24 -42 30 -60 6 -18 22 -49 35 -68 12 -19 23 -42 23 -50 0 -9 11 -38 25 -66 13 -27 31 -68 39 -92 9 -24 24 -56 35 -71 11 -15 23 -40 27 -57 3 -16 14 -40 23 -54 9 -13 27 -47 41 -74 39 -77 -82 -71 1733 -75 1780 -3 1677 -6 1677 52 0 21 -60 150 -110 237 -17 31 -78 156 -169 352 -17 37 -31 71 -31 77 0 5 -21 49 -46 98 -26 48 -53 102 -61 118 -8 17 -21 44 -30 60 -38 70 -86 173 -99 208 -7 21 -22 50 -32 65 -11 15 -24 42 -30 60 -6 18 -20 45 -30 60 -11 15 -23 38 -27 52 -4 14 -23 53 -41 88 -19 35 -34 69 -34 77 0 7 -7 18 -15 25 -8 7 -20 31 -27 54 -6 22 -21 55 -32 71 -12 17 -39 66 -60 110 -21 44 -44 91 -52 105 -33 62 -94 194 -94 205 0 7 -11 28 -24 47 -13 19 -45 80 -71 134 -26 54 -58 115 -71 134 -13 19 -24 42 -24 50 0 8 -10 33 -21 55 -12 22 -28 60 -35 86 -8 26 -21 52 -28 59 -8 6 -22 34 -31 61 -9 27 -20 51 -25 54 -13 8 -150 289 -150 307 0 8 -13 35 -30 59 -16 24 -30 48 -30 53 0 8 -73 156 -106 216 -7 14 -34 72 -59 130 -26 58 -52 112 -59 120 -8 8 -19 32 -25 52 -7 20 -18 42 -26 48 -8 6 -22 33 -31 58 -10 26 -25 58 -34 72 -10 14 -21 35 -24 48 -8 23 -76 168 -101 212 -7 14 -22 43 -33 65 -10 22 -40 80 -65 130 -26 49 -47 95 -47 102 0 11 -121 262 -156 323 -7 14 -20 41 -28 60 -8 19 -22 46 -30 60 -8 14 -31 61 -51 105 -20 44 -43 91 -51 105 -8 14 -22 41 -30 60 -8 19 -44 96 -81 170 -61 126 -96 200 -122 260 -6 14 -27 52 -46 85 -19 33 -44 80 -55 105 -12 25 -26 54 -32 65 -40 73 -218 440 -218 450 0 6 -11 26 -24 46 -13 19 -28 50 -34 69 -5 19 -21 53 -36 74 -14 21 -26 46 -26 55 0 9 -11 32 -23 51 -13 19 -28 49 -34 65 -6 17 -22 48 -37 69 -14 21 -26 46 -26 55 0 9 -11 33 -25 53 -14 20 -25 40 -25 44 0 8 -64 146 -86 184 -7 14 -21 41 -29 60 -8 19 -22 46 -30 60 -8 14 -22 41 -30 60 -9 19 -29 62 -45 95 -17 33 -30 67 -30 76 0 9 -7 22 -14 29 -8 6 -23 33 -32 58 -10 26 -26 59 -36 73 -10 15 -27 46 -38 70 -11 24 -27 55 -35 69 -8 14 -21 41 -29 60 -8 19 -22 46 -30 60 -21 36 -86 174 -86 183 0 5 -11 23 -24 40 -13 18 -29 49 -35 69 -7 20 -19 42 -26 48 -8 7 -20 31 -26 53 -6 22 -22 57 -35 76 -13 20 -24 40 -24 45 0 9 -56 132 -87 191 -9 17 -22 44 -30 60 -8 17 -21 41 -29 55 -8 14 -22 41 -30 60 -17 40 -129 272 -149 310 -36 65 -87 174 -101 212 -8 23 -21 49 -29 58 -8 9 -21 35 -30 59 -8 23 -23 54 -33 69 -11 15 -24 42 -30 60 -6 18 -20 45 -30 60 -10 15 -24 42 -30 60 -6 18 -20 45 -30 60 -10 15 -24 42 -30 60 -6 18 -20 45 -30 60 -10 15 -35 63 -56 107 -21 44 -44 91 -52 105 -8 14 -24 45 -35 70 -11 25 -27 57 -35 72 -8 15 -21 46 -29 68 -8 23 -23 53 -33 68 -11 15 -25 45 -32 67 -7 22 -19 47 -26 55 -7 9 -20 35 -29 59 -8 23 -23 54 -33 69 -11 15 -24 42 -31 61 -6 19 -18 42 -26 51 -8 9 -21 36 -30 60 -9 24 -22 51 -29 60 -8 8 -34 60 -59 116 -25 56 -57 118 -71 139 -14 21 -26 42 -26 48 0 9 -167 358 -195 407 -8 14 -26 48 -39 75 -14 28 -32 61 -40 75 -8 14 -24 45 -35 70 -11 25 -25 52 -30 60 -6 8 -27 53 -47 99 -20 47 -50 105 -65 130 -16 25 -29 49 -29 54 0 9 -65 150 -81 177 -5 8 -16 31 -25 50 -56 121 -79 170 -144 300 -40 80 -108 215 -151 300 -43 85 -79 160 -79 166 0 6 -11 27 -25 47 -13 20 -29 54 -35 76 -6 22 -15 43 -20 46 -6 3 -30 50 -55 103 -25 53 -52 108 -60 122 -21 39 -92 181 -109 220 -8 19 -22 46 -30 60 -8 14 -37 73 -65 132 -28 58 -55 109 -60 112 -5 4 -12 20 -16 36 -4 16 -26 67 -49 112 -68 132 -72 140 -99 198 -14 30 -30 70 -36 88 -6 18 -19 45 -29 60 -11 15 -23 38 -27 52 -4 14 -28 63 -52 110 -88 167 -147 290 -223 458 -22 51 -52 109 -66 129 -13 20 -24 40 -24 46 0 9 -163 351 -197 412 -28 51 -78 155 -128 265 -27 58 -57 117 -67 132 -10 14 -18 30 -18 36 0 5 -13 27 -28 48 -16 21 -47 73 -71 114 -40 72 -108 165 -188 261 -56 66 -303 275 -381 322 -37 22 -80 50 -97 62 -237 169 -705 253 -1206 215z"/>
<path d="M2855 11430 c-38 -11 -140 -26 -226 -35 -173 -16 -227 -24 -402 -54 -66 -12 -134 -21 -153 -21 -18 0 -57 -9 -86 -19 -29 -11 -91 -25 -138 -31 -47 -6 -134 -25 -195 -41 -170 -46 -268 -71 -480 -120 -49 -11 -117 -31 -151 -45 -33 -13 -65 -24 -71 -24 -19 0 -246 -71 -303 -94 -30 -13 -75 -30 -100 -39 -41 -14 -117 -43 -285 -109 -33 -13 -71 -30 -85 -38 -35 -20 -130 -61 -157 -67 -23 -5 -23 -5 -23 -2924 0 -2919 0 -2919 1482 -2920 816 -1 1498 -2 1516 -2 56 -1 54 -35 52 794 -1 875 5 815 -77 811 -108 -6 -1336 -8 -1644 -3 -390 7 -386 6 -410 68 -14 38 -13 2237 1 2265 51 98 -27 93 1319 89 655 -2 786 0 798 11 27 28 20 2528 -8 2551 -27 22 -84 21 -174 -3z"/>
</g>
</svg>
